<?xml version="1.0" encoding="UTF-8"?>
<svg xmlns="http://www.w3.org/2000/svg" xmlns:xlink="http://www.w3.org/1999/xlink" width="16px" height="16px" viewBox="0 0 16 16" version="1.1">
<g id="surface1">
<path style=" stroke:none;fill-rule:nonzero;fill:rgb(89.019608%,18.82353%,0%);fill-opacity:1;" d="M 10.25 5.15625 C 10.339844 5.195312 10.402344 5.238281 10.472656 5.308594 C 10.488281 5.328125 10.507812 5.34375 10.527344 5.363281 C 10.546875 5.382812 10.566406 5.402344 10.585938 5.421875 C 10.617188 5.457031 10.617188 5.457031 10.652344 5.488281 C 10.71875 5.558594 10.789062 5.625 10.859375 5.695312 C 10.90625 5.746094 10.957031 5.792969 11.003906 5.839844 C 11.128906 5.96875 11.257812 6.09375 11.382812 6.222656 C 11.511719 6.351562 11.640625 6.480469 11.769531 6.613281 C 12.023438 6.867188 12.277344 7.121094 12.53125 7.375 C 12.679688 7.25 12.824219 7.117188 12.960938 6.980469 C 12.980469 6.960938 13 6.941406 13.019531 6.917969 C 13.0625 6.875 13.101562 6.832031 13.144531 6.789062 C 13.234375 6.699219 13.324219 6.609375 13.414062 6.519531 C 13.582031 6.347656 13.75 6.179688 13.914062 6.011719 C 14.03125 5.894531 14.148438 5.777344 14.265625 5.660156 C 14.308594 5.613281 14.355469 5.570312 14.398438 5.523438 C 14.460938 5.460938 14.523438 5.398438 14.585938 5.335938 C 14.601562 5.316406 14.621094 5.296875 14.640625 5.277344 C 14.691406 5.226562 14.691406 5.226562 14.78125 5.15625 C 14.925781 5.171875 15.007812 5.273438 15.105469 5.371094 C 15.121094 5.390625 15.140625 5.40625 15.160156 5.425781 C 15.199219 5.464844 15.238281 5.503906 15.277344 5.542969 C 15.335938 5.601562 15.398438 5.664062 15.457031 5.722656 C 15.496094 5.757812 15.535156 5.796875 15.574219 5.835938 C 15.601562 5.863281 15.601562 5.863281 15.628906 5.890625 C 15.679688 5.941406 15.679688 5.941406 15.75 6.03125 C 15.742188 6.132812 15.703125 6.183594 15.632812 6.253906 C 15.613281 6.273438 15.59375 6.292969 15.574219 6.3125 C 15.554688 6.332031 15.535156 6.351562 15.515625 6.371094 C 15.492188 6.394531 15.472656 6.414062 15.449219 6.4375 C 15.378906 6.507812 15.308594 6.578125 15.238281 6.648438 C 15.1875 6.695312 15.140625 6.746094 15.089844 6.792969 C 14.960938 6.921875 14.832031 7.050781 14.703125 7.179688 C 14.570312 7.308594 14.4375 7.441406 14.308594 7.570312 C 14.050781 7.828125 13.789062 8.085938 13.53125 8.34375 C 13.65625 8.492188 13.789062 8.636719 13.925781 8.773438 C 13.945312 8.792969 13.964844 8.8125 13.988281 8.832031 C 14.050781 8.898438 14.117188 8.964844 14.179688 9.027344 C 14.226562 9.074219 14.273438 9.117188 14.316406 9.164062 C 14.4375 9.28125 14.554688 9.402344 14.671875 9.519531 C 14.792969 9.640625 14.914062 9.761719 15.039062 9.882812 C 15.273438 10.121094 15.511719 10.355469 15.75 10.59375 C 15.691406 10.726562 15.597656 10.816406 15.496094 10.914062 C 15.476562 10.933594 15.460938 10.953125 15.441406 10.972656 C 15.382812 11.03125 15.320312 11.089844 15.261719 11.148438 C 15.222656 11.1875 15.179688 11.230469 15.140625 11.269531 C 15.042969 11.367188 14.941406 11.464844 14.84375 11.5625 C 14.695312 11.4375 14.550781 11.304688 14.414062 11.167969 C 14.394531 11.148438 14.375 11.128906 14.355469 11.105469 C 14.289062 11.042969 14.222656 10.976562 14.160156 10.914062 C 14.113281 10.867188 14.070312 10.820312 14.023438 10.777344 C 13.90625 10.65625 13.785156 10.539062 13.667969 10.421875 C 13.546875 10.300781 13.425781 10.179688 13.304688 10.054688 C 13.066406 9.820312 12.832031 9.582031 12.59375 9.34375 C 12.503906 9.382812 12.441406 9.425781 12.371094 9.496094 C 12.355469 9.515625 12.335938 9.53125 12.316406 9.550781 C 12.296875 9.570312 12.277344 9.589844 12.257812 9.609375 C 12.234375 9.632812 12.214844 9.652344 12.191406 9.675781 C 12.125 9.746094 12.054688 9.8125 11.984375 9.882812 C 11.9375 9.933594 11.886719 9.980469 11.839844 10.027344 C 11.714844 10.15625 11.585938 10.28125 11.460938 10.410156 C 11.332031 10.539062 11.203125 10.667969 11.074219 10.800781 C 10.820312 11.054688 10.566406 11.308594 10.3125 11.5625 C 10.179688 11.503906 10.089844 11.410156 9.992188 11.308594 C 9.964844 11.28125 9.964844 11.28125 9.933594 11.253906 C 9.875 11.195312 9.816406 11.132812 9.757812 11.074219 C 9.71875 11.035156 9.675781 10.992188 9.636719 10.953125 C 9.539062 10.855469 9.441406 10.753906 9.34375 10.65625 C 9.382812 10.566406 9.425781 10.503906 9.496094 10.433594 C 9.515625 10.417969 9.53125 10.398438 9.550781 10.378906 C 9.582031 10.347656 9.582031 10.347656 9.609375 10.320312 C 9.644531 10.289062 9.644531 10.289062 9.675781 10.253906 C 9.746094 10.1875 9.8125 10.117188 9.882812 10.046875 C 9.933594 10 9.980469 9.949219 10.027344 9.902344 C 10.15625 9.777344 10.28125 9.648438 10.410156 9.523438 C 10.539062 9.394531 10.667969 9.265625 10.800781 9.136719 C 11.054688 8.882812 11.308594 8.628906 11.5625 8.375 C 11.523438 8.285156 11.480469 8.222656 11.410156 8.152344 C 11.390625 8.136719 11.375 8.117188 11.355469 8.097656 C 11.324219 8.066406 11.324219 8.066406 11.296875 8.039062 C 11.273438 8.015625 11.253906 7.996094 11.230469 7.972656 C 11.160156 7.90625 11.09375 7.835938 11.023438 7.765625 C 10.972656 7.71875 10.925781 7.667969 10.878906 7.621094 C 10.75 7.496094 10.625 7.367188 10.496094 7.242188 C 10.367188 7.113281 10.238281 6.984375 10.105469 6.855469 C 9.851562 6.601562 9.597656 6.347656 9.34375 6.09375 C 9.375 6.058594 9.402344 6.023438 9.433594 5.988281 C 9.449219 5.972656 9.464844 5.953125 9.480469 5.933594 C 9.554688 5.847656 9.628906 5.773438 9.707031 5.695312 C 9.722656 5.679688 9.738281 5.664062 9.753906 5.648438 C 9.804688 5.601562 9.851562 5.550781 9.902344 5.5 C 9.9375 5.46875 9.96875 5.433594 10.003906 5.402344 C 10.085938 5.320312 10.167969 5.238281 10.25 5.15625 Z M 10.25 5.15625 "/>
<path style=" stroke:none;fill-rule:nonzero;fill:rgb(43.529412%,70.588237%,0%);fill-opacity:1;" d="M 6.4375 5.46875 C 6.570312 5.527344 6.660156 5.621094 6.757812 5.722656 C 6.777344 5.742188 6.796875 5.757812 6.816406 5.777344 C 6.875 5.835938 6.933594 5.898438 6.992188 5.957031 C 7.03125 5.996094 7.074219 6.039062 7.113281 6.078125 C 7.210938 6.175781 7.308594 6.277344 7.40625 6.375 C 7.285156 6.519531 7.164062 6.652344 7.03125 6.785156 C 7.011719 6.800781 6.996094 6.816406 6.976562 6.835938 C 6.90625 6.90625 6.832031 6.980469 6.757812 7.050781 C 6.707031 7.105469 6.652344 7.160156 6.597656 7.210938 C 6.574219 7.234375 6.574219 7.234375 6.550781 7.257812 C 6.464844 7.34375 6.386719 7.425781 6.3125 7.515625 C 6.167969 7.679688 6.015625 7.832031 5.863281 7.980469 C 5.832031 8.015625 5.800781 8.046875 5.769531 8.078125 C 5.699219 8.144531 5.632812 8.214844 5.5625 8.28125 C 5.453125 8.390625 5.347656 8.5 5.238281 8.609375 C 4.988281 8.855469 4.738281 9.105469 4.488281 9.355469 C 4.257812 9.582031 4.03125 9.8125 3.800781 10.042969 C 3.691406 10.148438 3.585938 10.257812 3.476562 10.363281 C 3.410156 10.429688 3.34375 10.496094 3.277344 10.566406 C 3.246094 10.59375 3.214844 10.625 3.183594 10.65625 C 3.027344 10.8125 2.875 10.96875 2.730469 11.136719 C 2.675781 11.203125 2.617188 11.261719 2.558594 11.320312 C 2.535156 11.34375 2.511719 11.363281 2.492188 11.386719 C 2.46875 11.410156 2.445312 11.429688 2.421875 11.453125 C 2.402344 11.476562 2.378906 11.5 2.355469 11.523438 C 2.300781 11.578125 2.242188 11.632812 2.1875 11.6875 C 2.0625 11.636719 1.976562 11.546875 1.882812 11.453125 C 1.855469 11.425781 1.855469 11.425781 1.828125 11.398438 C 1.769531 11.339844 1.710938 11.28125 1.652344 11.222656 C 1.613281 11.183594 1.574219 11.140625 1.53125 11.101562 C 1.425781 10.996094 1.320312 10.886719 1.214844 10.78125 C 1.105469 10.671875 0.996094 10.5625 0.886719 10.453125 C 0.675781 10.238281 0.460938 10.027344 0.25 9.8125 C 0.367188 9.675781 0.484375 9.542969 0.613281 9.414062 C 0.628906 9.398438 0.644531 9.382812 0.660156 9.367188 C 0.710938 9.320312 0.757812 9.269531 0.808594 9.21875 C 0.84375 9.1875 0.875 9.152344 0.910156 9.121094 C 0.992188 9.039062 1.074219 8.957031 1.15625 8.875 C 1.289062 8.925781 1.378906 9.027344 1.476562 9.128906 C 1.496094 9.148438 1.515625 9.164062 1.535156 9.183594 C 1.59375 9.242188 1.652344 9.304688 1.710938 9.363281 C 1.75 9.402344 1.792969 9.445312 1.832031 9.484375 C 1.929688 9.582031 2.027344 9.683594 2.125 9.78125 C 2.296875 9.636719 2.457031 9.484375 2.613281 9.328125 C 2.640625 9.300781 2.667969 9.273438 2.695312 9.246094 C 2.765625 9.175781 2.835938 9.105469 2.90625 9.035156 C 2.984375 8.960938 3.058594 8.882812 3.132812 8.808594 C 3.257812 8.683594 3.382812 8.558594 3.511719 8.433594 C 3.65625 8.285156 3.800781 8.140625 3.945312 7.996094 C 4.070312 7.871094 4.195312 7.746094 4.320312 7.621094 C 4.394531 7.546875 4.46875 7.472656 4.542969 7.398438 C 4.625 7.316406 4.707031 7.234375 4.792969 7.148438 C 4.828125 7.113281 4.828125 7.113281 4.863281 7.078125 C 4.992188 6.949219 5.117188 6.816406 5.234375 6.679688 C 5.289062 6.613281 5.351562 6.550781 5.414062 6.492188 C 5.433594 6.46875 5.457031 6.445312 5.480469 6.421875 C 5.519531 6.382812 5.519531 6.382812 5.554688 6.347656 C 5.59375 6.308594 5.59375 6.308594 5.632812 6.269531 C 5.710938 6.191406 5.792969 6.109375 5.875 6.03125 C 5.929688 5.976562 5.984375 5.921875 6.039062 5.867188 C 6.171875 5.734375 6.304688 5.601562 6.4375 5.46875 Z M 6.4375 5.46875 "/>
<path style=" stroke:none;fill-rule:nonzero;fill:rgb(90.196079%,90.196079%,90.196079%);fill-opacity:1;" d="M 8.125 3.9375 C 8.175781 3.9375 8.226562 3.9375 8.28125 3.9375 C 8.28125 6.609375 8.28125 9.28125 8.28125 12.03125 C 8.230469 12.042969 8.179688 12.050781 8.125 12.0625 C 8.078125 12.015625 8.089844 11.96875 8.089844 11.902344 C 8.089844 11.875 8.089844 11.84375 8.089844 11.816406 C 8.089844 11.785156 8.089844 11.753906 8.089844 11.722656 C 8.089844 11.6875 8.089844 11.65625 8.089844 11.621094 C 8.089844 11.511719 8.089844 11.398438 8.089844 11.289062 C 8.089844 11.207031 8.089844 11.128906 8.089844 11.050781 C 8.089844 10.855469 8.089844 10.664062 8.089844 10.46875 C 8.089844 10.3125 8.089844 10.152344 8.089844 9.996094 C 8.089844 9.972656 8.089844 9.953125 8.089844 9.929688 C 8.089844 9.882812 8.089844 9.835938 8.089844 9.792969 C 8.089844 9.367188 8.089844 8.9375 8.089844 8.511719 C 8.089844 8.148438 8.089844 7.78125 8.089844 7.414062 C 8.089844 6.988281 8.089844 6.5625 8.089844 6.140625 C 8.089844 6.09375 8.089844 6.050781 8.089844 6.003906 C 8.089844 5.980469 8.089844 5.960938 8.089844 5.9375 C 8.089844 5.777344 8.089844 5.621094 8.089844 5.464844 C 8.089844 5.253906 8.089844 5.042969 8.089844 4.828125 C 8.089844 4.75 8.089844 4.671875 8.089844 4.597656 C 8.089844 4.488281 8.089844 4.382812 8.089844 4.277344 C 8.089844 4.246094 8.089844 4.214844 8.089844 4.183594 C 8.089844 4.15625 8.089844 4.128906 8.089844 4.097656 C 8.089844 4.074219 8.089844 4.050781 8.089844 4.023438 C 8.09375 3.96875 8.09375 3.96875 8.125 3.9375 Z M 8.125 3.9375 "/>
</g>
</svg>
